PathFileType	4	(X/Y/Z)	/Users/visionmauri/1_6_1_f_Sports2D/1_6_1_f_Sports2D_px_person00.trc
DataRate	CameraRate	NumFrames	NumMarkers	Units	OrigDataRate	OrigDataStartFrame	OrigNumFrames
30.0	30.0	6	22	m	30.0	223	447
Frame#	Time	Hip			RHip			RKnee			RAnkle			RBigToe			RSmallToe			RHeel			LHip			LKnee			LAnkle			LBigToe			LSmallToe			LHeel			Neck			Head			Nose			RShoulder			RElbow			RWrist			LShoulder			LElbow			LWrist			
		X1	Y1	Z1	X2	Y2	Z2	X3	Y3	Z3	X4	Y4	Z4	X5	Y5	Z5	X6	Y6	Z6	X7	Y7	Z7	X8	Y8	Z8	X9	Y9	Z9	X10	Y10	Z10	X11	Y11	Z11	X12	Y12	Z12	X13	Y13	Z13	X14	Y14	Z14	X15	Y15	Z15	X16	Y16	Z16	X17	Y17	Z17	X18	Y18	Z18	X19	Y19	Z19	X20	Y20	Z20	X21	Y21	Z21	X22	Y22	Z22
223	7.449999999999999	507.29620196859844	822.5514390709391	0.0	465.72566156232534	828.5485563344689	0.0	460.88906933761035	1009.9062068768226	0.0	495.78964699465416	1193.6252228063622	0.0	443.1549351598623	1250.4289882509706	0.0	434.99452417721716	1238.3906792776736	0.0	513.2102251985132	1223.3833012461866	0.0	547.6517749861346	821.7831758582212	0.0	526.0189757407909	991.527787975728	0.0	523.0828680614128	1186.3462687003862	0.0	515.1556872386014	1237.6684774396333	0.0	528.2256604470118	1232.2884403209616	0.0	534.1568056015136	1213.8926106500467	0.0	485.5075755826939	558.4424438313888	0.0	435.6274593479412	444.5741120349598	0.0	439.32356121015596	531.4937776401207	0.0	418.6182718852636	585.3630143873016	0.0	416.3227579763627	697.7230648916716	0.0	399.3464245238148	794.0753525991641	0.0	568.6193045606227	581.3597042670946	0.0	614.5312672824413	718.3941828836928	0.0	565.99105796284	788.172491630427	0.0
224	7.483408071748879	505.8650711650474	823.5439470828395	0.0	463.27992116040093	828.8707035337092	0.0	461.6594483002545	1009.5458568400024	0.0	496.20357110257476	1193.5605039650256	0.0	448.4165759680299	1250.9033862493077	0.0	438.22597519997447	1238.5446369827237	0.0	513.4637846779368	1223.8465335965004	0.0	547.9079219551479	822.4058175255918	0.0	528.5983509345054	991.8568068625638	0.0	524.3173927074887	1184.3423895459903	0.0	521.3605156412107	1237.2364010384872	0.0	530.6402982300077	1232.4908921053186	0.0	533.2999608641195	1212.9933894196652	0.0	484.12019704166903	559.0217639489543	0.0	436.8131973904971	443.9395058714423	0.0	439.9341543488908	530.9546901014015	0.0	415.1599317288509	586.233822067555	0.0	413.171252848955	697.6238119300051	0.0	397.36498351863315	794.7179963357264	0.0	566.7348299380014	579.9739281389137	0.0	615.1668863624337	716.4999109402473	0.0	574.9580970676337	779.2565446999353	0.0
225	7.516816143497757	504.604851300294	824.8055385473529	0.0	460.97681450414143	830.7219200484965	0.0	462.1742543147833	1008.4112185851366	0.0	495.78326598669065	1191.1918269688547	0.0	453.78295140079314	1249.5206557538966	0.0	441.9996122111217	1238.2095974198714	0.0	512.7872014984564	1221.2543627472128	0.0	548.538666845104	824.7187624673551	0.0	531.7535289838344	994.2527974894275	0.0	524.5211707927303	1182.5367974807796	0.0	522.8510703047805	1237.3375471605461	0.0	527.7344027666772	1233.7923280932575	0.0	532.0837353417302	1212.1062630056533	0.0	483.626855295516	558.9553951676094	0.0	439.0522729837763	443.6643580663845	0.0	440.6279633983996	530.0062545940872	0.0	412.1757325328905	586.1628860055475	0.0	409.97195809007627	697.6993770817435	0.0	395.9136709470614	796.2293640211811	0.0	566.6338522515437	580.6188622708465	0.0	616.0352851122597	716.1746221961715	0.0	578.4545138399192	779.5229288603805	0.0
226	7.550224215246637	503.28823309493083	826.252348200343	0.0	459.2119253884816	833.3760592810559	0.0	462.2015762152888	1007.229026119024	0.0	494.7589636115361	1187.8298488960565	0.0	457.4438372420717	1247.5084412442002	0.0	445.2356656072261	1237.6179621595238	0.0	511.6751055421939	1217.7471052779536	0.0	548.9536606228407	828.6028238006852	0.0	533.9672470887148	997.7899117902231	0.0	524.6012580362282	1182.192453454309	0.0	518.6134339343228	1238.2536509781673	0.0	522.2968521351787	1236.3728558374946	0.0	531.6520996254594	1211.9830128660126	0.0	483.6986053318107	559.066824376081	0.0	441.3577453808176	443.36216993212577	0.0	441.5649844203398	529.7259723196435	0.0	409.3541143959503	585.8827718776138	0.0	406.71999954543134	697.8615134889142	0.0	394.75895737229877	797.297137480473	0.0	568.3584355065423	582.6226951709364	0.0	617.2360322433357	716.8997687032233	0.0	575.6319013391095	790.0407815825628	0.0
227	7.583632286995515	501.9224788602601	827.1170485228541	0.0	457.912645727812	835.3349131863475	0.0	461.77687640301184	1006.7665347946489	0.0	494.32497810133214	1185.3434200600232	0.0	459.1157578798286	1245.6098247146545	0.0	447.19271027612257	1236.61360608736	0.0	511.1592871782483	1215.6287807090955	0.0	548.8392382846644	832.0919231973369	0.0	535.382937083627	999.781734460457	0.0	526.0826536478204	1183.0520949003367	0.0	513.0284604973263	1239.7121112535388	0.0	521.0502167843108	1239.3494873788143	0.0	533.0234411487121	1212.179050206966	0.0	483.35431428531626	560.1629797951966	0.0	443.146350610918	442.8310751642688	0.0	443.54236671780285	531.0045718677588	0.0	406.44549290134995	586.6034466558136	0.0	403.35226297135904	698.7170484240434	0.0	393.3933268750826	798.0438573518511	0.0	570.2205797947202	584.1833468834225	0.0	618.4317823316023	717.5760271882003	0.0	570.7445418363748	803.1945422315368	0.0
228	7.6170403587443944	500.9386890341338	826.8599986590614	0.0	456.6266456138364	835.7993673254549	0.0	461.39914628295446	1006.9671909206556	0.0	495.0269310221833	1183.9304399494192	0.0	459.79058017510147	1243.3275465947684	0.0	447.58016233493765	1234.3183178771483	0.0	511.56221314959595	1214.2464212070897	0.0	548.4298957198777	833.2781570001446	0.0	537.4863882994489	999.7648625791448	0.0	529.3773619082275	1184.33753085573	0.0	510.65545199808315	1240.5532629435288	0.0	523.3951796227026	1240.8939330155895	0.0	536.2169300675816	1212.2301941537685	0.0	482.2585623777818	562.0332568028687	0.0	445.64092253927794	443.0152506702463	0.0	447.47785033944444	533.8380741096427	0.0	403.4133478687547	588.0502786714936	0.0	400.0109363880758	700.0491339977659	0.0	392.2561134320666	799.0108919609853	0.0	571.47163724979	584.9377525104101	0.0	619.3860334692992	717.4848806181229	0.0	569.6102955339837	809.8349291201216	0.0
